<svg width="205" height="162" viewBox="0 0 205 162" fill="none" xmlns="http://www.w3.org/2000/svg">
<path d="M156.974 15.9941C129.724 -0.329291 91.2646 36.3052 50.031 44.8997C8.84769 53.4838 6.36443 164.906 55.9568 141.341C117.865 111.923 196.112 131.292 190.147 83.4071C187.23 59.9906 201.184 42.4767 156.974 15.9941Z" fill="#F4F0F9"/>
<path fill-rule="evenodd" clip-rule="evenodd" d="M172.046 86.4782C173.227 85.206 174.025 83.6469 173.892 81.8998C173.507 76.8661 165.878 77.9735 164.393 80.514C162.909 83.0546 163.086 89.4991 165.004 89.9531C165.769 90.1342 167.398 89.6906 169.057 88.7726L168.016 95.5364H174.163L172.046 86.4782Z" fill="#B28B67"/>
<path fill-rule="evenodd" clip-rule="evenodd" d="M176.572 80.2239C176.77 80.0432 176.879 79.7853 176.972 79.5404C177.07 79.2861 177.164 79.029 177.229 78.7643C177.358 78.2352 177.359 77.6268 176.948 77.216C176.618 76.8865 176.124 76.7388 175.668 76.7067C175.363 76.6853 175.051 76.7244 174.76 76.8124C174.47 76.8997 174.221 77.0737 173.941 77.1817C173.93 76.6115 173.824 76.015 173.509 75.5282C173.206 75.0598 172.723 74.7969 172.172 74.7274C171.608 74.656 171.05 74.7774 170.544 75.0285C170.418 75.0914 170.292 75.1573 170.172 75.2319C170.072 75.2943 169.967 75.3695 169.849 75.3949C169.718 75.4233 169.653 75.3535 169.567 75.2655C169.467 75.1622 169.354 75.0712 169.235 74.9906C168.707 74.6342 168.014 74.4876 167.402 74.7013C167.12 74.7997 166.846 74.9669 166.655 75.1973C166.485 75.4026 166.363 75.7284 166.128 75.8715C166.028 75.9322 165.957 75.8517 165.866 75.7922C165.73 75.7029 165.6 75.6043 165.462 75.5174C165.267 75.3952 165.057 75.3039 164.832 75.2561C164.503 75.1861 164.047 75.2025 163.953 75.5988C163.918 75.7476 163.945 75.9068 163.956 76.0568C163.972 76.2627 163.988 76.4686 164.008 76.6743C164.023 76.8304 164.041 76.9812 164.073 77.1345C164.091 77.2163 164.144 77.3686 164.106 77.4505C164.058 77.5528 163.838 77.4946 163.744 77.4982C163.558 77.5052 163.372 77.5351 163.2 77.608C163.067 77.6645 162.927 77.7476 162.871 77.8877C162.836 77.9738 162.846 78.0622 162.862 78.1507C162.881 78.257 162.859 78.3133 162.844 78.4205C162.595 78.3077 161.731 78.0571 161.622 78.4677C161.586 78.6044 161.668 78.7588 161.731 78.8741C161.841 79.0764 161.986 79.2612 162.134 79.4375C162.442 79.8052 162.811 80.1223 163.207 80.3936C162.743 80.5832 162.621 81.1423 163.023 81.4754C163.201 81.6225 163.44 81.6552 163.663 81.6458C163.745 81.6424 163.864 81.6135 163.928 81.6266C163.963 81.6336 164 81.6606 164.048 81.6636C164.364 81.6835 164.721 81.6136 165.029 81.5492C165.58 81.4345 166.101 81.195 166.526 80.8303C166.635 80.7368 166.726 80.6829 166.872 80.6843C167.001 80.6855 167.127 80.7179 167.256 80.7209C167.596 80.7289 167.903 80.5761 168.219 80.4744C168.239 80.8664 168.36 81.2983 168.535 81.651C168.677 81.9386 168.975 81.9804 169.267 82.0056C170.201 82.0864 171.139 81.9963 172.075 81.9975C171.169 82.1855 170.233 82.263 169.335 82.4842C168.93 82.5842 169.239 82.8354 169.413 83.0095C169.699 83.2962 169.911 83.6514 170.058 84.0257C170.501 83.4953 171.285 83.1458 171.978 83.3087C172.745 83.4888 173.285 84.4409 172.795 85.1253C172.51 85.5227 171.996 85.6761 171.568 85.8468C171.902 86.1654 171.983 86.6358 172.183 87.0321C172.282 87.2276 172.422 87.4485 172.643 87.5166C172.725 87.5419 172.821 87.544 172.886 87.6054C172.966 87.6813 172.985 87.7662 173.087 87.8315C173.495 88.092 174.133 88.072 174.494 87.732C174.821 87.4245 174.736 86.9379 174.463 86.6261C174.898 86.4596 175.69 86.2456 175.517 85.6234C176.459 85.5659 178.747 84.1625 177.483 83.137C178.177 82.7767 178.814 81.8964 178.368 81.1203C178.025 80.5227 177.227 80.2556 176.572 80.2239Z" fill="#79091F"/>
<path fill-rule="evenodd" clip-rule="evenodd" d="M185.272 124.938H165.486L162.893 154.105H192.347L185.272 124.938Z" fill="#C5CFD6"/>
<path fill-rule="evenodd" clip-rule="evenodd" d="M185.272 124.938H179.187L175.545 154.105H192.347L185.272 124.938Z" fill="black" fill-opacity="0.1"/>
<path fill-rule="evenodd" clip-rule="evenodd" d="M142.928 119.942C140.819 118.778 137.279 120.273 137.282 121.937C137.289 126.915 142.236 150.377 142.494 151.86C142.752 153.344 145.519 153.735 145.68 151.865C145.937 148.89 146.413 138.589 145.936 133.821C145.74 131.853 145.528 129.978 145.319 128.306C147.915 132.611 151.93 138.775 157.363 146.798L160.312 145.56C157.996 138.552 156.097 133.604 154.615 130.717C152.077 125.773 149.697 121.54 148.695 120.049C147.12 117.703 144.377 118.522 142.928 119.942Z" fill="#B28B67"/>
<path fill-rule="evenodd" clip-rule="evenodd" d="M160.102 141.668L149.978 119.643C147.553 116.06 140.753 120.372 141.58 122.45C143.458 127.168 153.008 142.442 153.567 143.847L160.102 141.668Z" fill="#1A1C23"/>
<path fill-rule="evenodd" clip-rule="evenodd" d="M160.596 144.198C161.239 144.692 161.659 145.094 161.856 145.403C162.096 145.78 162.38 146.364 162.707 147.156C162.247 147.398 158.109 149.575 150.295 153.687C149.328 152.845 149.167 152.201 149.81 151.755C150.454 151.308 150.985 150.932 151.403 150.625L155.619 145.149C155.7 145.044 155.861 145.023 155.977 145.102C155.979 145.103 155.981 145.105 155.983 145.106L156.897 145.764C157.722 145.711 158.335 145.578 158.737 145.366C159.064 145.194 159.436 144.832 159.852 144.278L159.852 144.278C160.012 144.066 160.332 144.02 160.567 144.177C160.577 144.183 160.587 144.191 160.596 144.198Z" fill="#D64545"/>
<path fill-rule="evenodd" clip-rule="evenodd" d="M146.328 150.671C146.615 151.373 146.758 151.899 146.758 152.248C146.758 152.672 146.681 153.291 146.527 154.105C145.992 154.105 141.176 154.105 132.082 154.105C131.707 152.965 131.923 152.35 132.732 152.259C133.541 152.168 134.213 152.086 134.748 152.012L141.462 149.264C141.591 149.211 141.742 149.264 141.8 149.383C141.801 149.385 141.802 149.387 141.803 149.389L142.234 150.35C142.983 150.671 143.591 150.831 144.06 150.831C144.44 150.831 144.965 150.69 145.635 150.408L145.635 150.408C145.892 150.3 146.196 150.404 146.314 150.64C146.319 150.65 146.324 150.66 146.328 150.671Z" fill="#D64545"/>
<path fill-rule="evenodd" clip-rule="evenodd" d="M136.572 123.629C136.572 129.878 139.803 144.454 139.805 145.83L146.758 145.835C145.74 132.828 145.379 126.255 145.675 126.115C146.119 125.905 163.873 127.743 169.197 127.743C176.875 127.743 180.051 123.296 180.309 115.059H165.099C162.002 115.363 145.849 118.356 139.85 119.384C137.282 119.825 136.572 121.907 136.572 123.629Z" fill="#1A1C23"/>
<path fill-rule="evenodd" clip-rule="evenodd" d="M162.732 100.406L153.842 95.934C152.364 94.3217 150.907 93.0696 149.472 92.1776C149.034 92.0095 148.267 91.9077 148.984 93.0765C149.701 94.2453 150.398 95.5042 150.033 95.8643C149.667 96.2244 148.757 95.7214 148.321 96.3196C148.03 96.7185 149.586 97.3485 152.989 98.2098L159.449 103.641L162.732 100.406ZM148.809 104.178L144.904 102.208C144.356 100.293 143.701 99.3301 142.939 99.3181C142.353 99.068 143.373 101.487 142.263 101.278C141.154 101.068 138.445 99.2178 137.978 99.5934C137.288 100.149 137.904 101.855 138.629 102.704C139.985 104.291 141.107 104.833 143.881 105.544C145.332 105.915 146.9 106.66 148.586 107.777L148.809 104.178Z" fill="#997659"/>
<path fill-rule="evenodd" clip-rule="evenodd" d="M167.06 99.4096C163.946 99.3794 159.794 98.7754 155.364 96.1926L153.624 99.7561C156.68 102.541 160.977 104.83 164.734 104.733C167.695 104.657 169.208 101.367 167.06 99.4096Z" fill="#CF173C"/>
<path fill-rule="evenodd" clip-rule="evenodd" d="M162.868 105.124C159.562 105.881 154.019 104.988 146.238 102.445C144.308 106.112 143.415 108.726 143.561 110.288C150.236 113.49 155.957 114.918 160.67 115.012C160.521 117.581 160.861 120.025 162.005 122.258C164.355 126.849 178.122 122.597 182.75 123.434C185.649 114.789 180.044 111.275 180.04 105.744C180.035 99.6857 174.738 90.3613 173.959 90.3613H166.853C166.461 94.9877 164.487 100.086 162.868 105.124Z" fill="#CF173C"/>
<rect x="85.321" y="56.3837" width="60.6556" height="49.6547" rx="3" fill="#CBD2D9"/>
<rect x="86.6467" y="63.4249" width="58.004" height="40.7613" rx="3" fill="white"/>
<g filter="url(#filter0_d_402_1254)">
<circle cx="90.4647" cy="59.7743" r="1.16643" fill="#F66D6D"/>
</g>
<g filter="url(#filter1_d_402_1254)">
<circle cx="94.4429" cy="59.7743" r="1.16643" fill="#F6CD6F"/>
</g>
<g filter="url(#filter2_d_402_1254)">
<circle cx="98.4199" cy="59.7743" r="1.16643" fill="#57C55B"/>
</g>
<rect x="90.6243" y="66.7602" width="47.729" height="5.1878" rx="2.5939" fill="#CBD2D9"/>
<rect x="90.6243" y="80.1002" width="47.729" height="2.22334" rx="1.11167" fill="#CDEBFF"/>
<rect x="90.6243" y="88.993" width="47.729" height="2.22334" rx="1.11167" fill="#CDEBFF"/>
<rect x="90.6243" y="83.8054" width="32.1508" height="2.22334" rx="1.11167" fill="#CDEBFF"/>
<rect x="90.6243" y="92.6981" width="32.1508" height="2.22334" rx="1.11167" fill="#CDEBFF"/>
<path fill-rule="evenodd" clip-rule="evenodd" d="M50.346 68.8118C49.2591 67.6379 48.5235 66.1993 48.6464 64.5874C49.0006 59.9428 56.0273 60.9646 57.3942 63.3087C58.761 65.6529 58.5986 71.5991 56.8321 72.018C56.1276 72.1851 54.6268 71.7758 53.0994 70.9287L54.0581 77.1696H48.3971L50.346 68.8118Z" fill="#B28B67"/>
<path fill-rule="evenodd" clip-rule="evenodd" d="M53.383 65.1C53.5997 67.8774 54.1729 69.2661 55.1026 69.2661C56.4973 69.2661 57.6806 68.4514 58.2925 68.4514C58.7386 68.4514 58.639 68.9651 58.3433 69.3459C58.0994 69.6601 56.9113 69.963 56.9113 70.4501C56.9113 70.9372 57.85 70.5603 57.85 70.8492C57.85 71.3271 58.015 72.2256 57.1135 72.2256C56.2013 72.2256 53.5857 71.9197 53.1375 70.6739C52.8482 69.8699 52.6611 68.2039 52.5763 65.6759C52.521 65.6698 52.4647 65.6667 52.4076 65.6667C51.6259 65.6667 50.9923 66.2497 50.9923 66.9689C50.9923 67.334 51.1556 67.664 51.4187 67.9004C51.0912 68.3257 50.7242 68.77 50.3036 69.2284C48.7238 68.3563 47.5514 65.8032 49.096 63.3506C49.5229 62.1492 50.4894 61.5074 51.6309 61.2094C52.5556 60.8535 53.5154 60.8134 54.3257 61.0268C55.9141 61.1521 57.3324 61.5978 57.7344 61.8624C57.7344 63.246 57.443 63.6565 54.9543 63.6203C54.3427 63.9175 53.8726 64.4292 53.383 65.1Z" fill="#79091F"/>
<path fill-rule="evenodd" clip-rule="evenodd" d="M68.6247 73.5482L77.5653 71.0788C79.2331 69.8841 80.8063 69.0107 82.2848 68.4584C82.7148 68.3839 83.4267 68.4272 82.5371 69.3557C81.6475 70.2842 80.7572 71.2977 81.0112 71.687C81.2652 72.0763 82.1906 71.7828 82.4584 72.3995C82.637 72.8107 81.1038 73.1051 77.8588 73.2829L70.9074 77.0471L68.6247 73.5482ZM67.8347 88.0517L75.3587 93.1354C77.3994 93.642 79.1043 94.2724 80.4734 95.0264C80.7968 95.2976 81.1877 95.8467 79.8464 95.7518C78.5051 95.6569 77.0897 95.6126 76.9046 96.0335C76.7195 96.4545 77.5312 96.9579 77.1571 97.5259C76.9077 97.9045 75.7294 96.9551 73.6222 94.6776L66.1714 91.8348L67.8347 88.0517Z" fill="#B28B67"/>
<path fill-rule="evenodd" clip-rule="evenodd" d="M56.1479 74.3614C60.2452 81.3909 66.1701 86.7796 74.7596 92.3812L71.5073 95.7554C61.9168 92.4761 56.8551 90.4975 54.3695 83.8561C53.7456 82.1892 53.3096 76.8755 52.9356 74.0797L56.1479 74.3614Z" fill="#CF173C"/>
<path fill-rule="evenodd" clip-rule="evenodd" d="M44.694 97.782H62.8564C58.7423 86.2372 56.6407 78.3136 56.5515 74.0111C56.5469 73.7918 56.1067 73.4053 55.9119 73.4559C54.4874 73.826 52.9631 73.6876 51.339 73.0406C47.0333 79.4123 45.5443 87.2571 44.694 97.782Z" fill="#F2F2F2"/>
<path fill-rule="evenodd" clip-rule="evenodd" d="M52.8886 73.051C58.0948 73.0902 66.5414 73.965 76.2827 71.0875L77.2444 75.5091C69.8821 79.8659 62.427 83.2409 55.8946 82.7617C58.7312 93.9575 58.6004 103.122 52.3379 103.122C49.3472 103.122 46.1191 103.122 42.6537 103.122C41.1157 93.6117 45.158 80.4249 48.9055 73.7736C49.0486 73.5196 49.3533 73.0407 50.071 73.0407C50.6963 73.0407 51.6343 73.0407 52.8849 73.0407C52.8862 73.0442 52.8874 73.0476 52.8886 73.051Z" fill="#CF173C"/>
<path fill-rule="evenodd" clip-rule="evenodd" d="M45.3997 102.338L56.7409 129.95L64.6903 150.302H69.223L58.2958 102.338L45.3997 102.338Z" fill="#1A1C23"/>
<path fill-rule="evenodd" clip-rule="evenodd" d="M42.5974 102.338C42.4741 111.812 42.5632 124.568 42.276 125.159C42.0845 125.552 36.1284 130.038 24.4075 138.616L26.7439 142.272C40.6592 134.015 47.9725 129.337 48.684 128.237C49.7511 126.586 55.1124 111.402 57.9017 102.338H42.5974Z" fill="#1A1C23"/>
<path fill-rule="evenodd" clip-rule="evenodd" d="M20.298 141.045L24.2059 138.315L27.4032 141.817C27.6675 144.444 28.6334 147.394 30.301 150.667L29.5856 151.219L23.7999 144.881L22.1783 142.437L21.8206 142.713L20.298 141.045Z" fill="#79091F"/>
<path fill-rule="evenodd" clip-rule="evenodd" d="M64.2708 154.208L64.5066 149.651H69.46C71.8087 151.17 74.8751 152.4 78.6591 153.34V154.208H69.6959L66.6295 153.774V154.208H64.2708Z" fill="#79091F"/>
<path fill-rule="evenodd" clip-rule="evenodd" d="M100.251 113.25C99.7483 113.02 99.0779 113.286 99.3576 113.893C99.6571 114.542 100.765 114.55 101.39 114.537C101.328 114.534 101.126 113.939 101.057 113.849C100.853 113.583 100.56 113.391 100.251 113.25ZM106.045 124.894C106.172 124.994 106.055 124.904 106.045 124.894V124.894ZM99.7667 116.187C99.4725 116.394 99.4584 116.76 99.6988 117.007C99.9851 117.301 100.508 117.291 100.898 117.262C101.074 117.249 102.017 117.18 101.793 117.038C101.811 117.044 101.846 117.058 101.885 117.078C101.905 117.147 101.927 117.217 101.95 117.286C101.944 117.289 101.94 117.292 101.934 117.295C101.94 117.292 101.945 117.289 101.95 117.287C102.177 117.976 102.499 118.632 102.922 119.245C102.764 119.188 102.6 119.145 102.434 119.125C101.942 119.068 100.908 119.42 101.458 120.022C101.985 120.599 102.806 119.98 103.405 119.894C103.985 120.64 104.625 121.354 105.296 122.045C105.255 122.056 105.219 122.081 105.198 122.12C104.929 121.994 104.649 121.814 104.4 121.766C104.04 121.696 103.303 121.653 103.032 121.949C102.698 122.313 103.056 122.608 103.45 122.678C104.023 122.779 104.772 122.522 105.322 122.348C105.385 122.359 105.454 122.342 105.495 122.295C105.507 122.292 105.52 122.288 105.531 122.285C106.211 122.972 106.916 123.636 107.617 124.286C107.609 124.286 107.602 124.285 107.594 124.285C107.411 124.174 107.215 124.084 107.002 124.036C106.511 123.926 105.932 123.926 105.533 124.253C105.136 124.579 104.995 125.149 105.406 125.515C106.229 126.248 107.442 124.577 107.857 124.508C108.569 125.161 109.322 125.772 110.087 126.37C110.001 126.345 109.911 126.328 109.819 126.319C109.069 126.253 107.309 127.1 108.229 127.932C109.031 128.658 109.96 127.261 110.606 126.773C111.327 127.33 112.052 127.884 112.756 128.46C112.372 128.366 112.001 128.352 111.589 128.466C111.163 128.585 110.475 128.881 110.745 129.411C111.019 129.949 111.844 129.704 112.275 129.533C112.509 129.44 112.979 129.125 113.392 128.993C114.517 129.969 115.49 131.045 116.227 132.311C116.687 133.103 117.037 133.948 117.282 134.816C117.439 135.371 117.748 136.302 117.687 137.024C117.982 135.579 117.448 133.844 116.874 132.553C116.345 131.366 115.555 130.324 114.629 129.386C114.861 128.743 116.817 127.815 115.648 127.217C115.027 126.901 114.391 127.426 114.255 127.981C114.162 128.362 114.304 128.842 114.455 129.212C114.163 128.926 113.86 128.649 113.548 128.382C113.117 128.012 112.675 127.653 112.23 127.298C112.964 126.663 113.66 124.848 112.674 124.551C111.22 124.114 111.92 126.59 112.022 127.054C112.051 127.056 112.073 127.048 112.09 127.031C112.081 127.073 112.072 127.118 112.06 127.164C111.207 126.489 110.341 125.827 109.504 125.136C109.579 125.085 109.699 124.889 109.793 124.784C110.006 124.549 110.21 124.303 110.358 124.028C110.593 123.593 110.82 122.9 110.197 122.644C109.52 122.365 109.198 123.15 109.193 123.618C109.19 123.941 109.286 124.249 109.336 124.566C109.351 124.665 109.291 125.111 109.438 124.919C109.431 124.99 109.43 125.041 109.433 125.078C109.283 124.953 109.134 124.827 108.985 124.7C108.992 124.684 108.997 124.666 108.998 124.646C109.006 124.507 108.854 124.453 108.747 124.494C108.551 124.323 108.357 124.149 108.167 123.973C107.764 123.599 107.355 123.214 106.949 122.821C107.037 122.751 107.002 122.654 107.084 122.581C107.166 122.507 107.329 122.466 107.425 122.397C107.669 122.225 107.871 121.974 108.016 121.726C108.257 121.318 108.569 120.46 107.865 120.265C107.139 120.064 106.771 120.89 106.724 121.406C106.715 121.506 106.797 122.406 106.859 122.733C106.107 122.003 105.368 121.245 104.698 120.474C104.901 120.472 105.477 120.089 105.593 119.985C105.877 119.73 106.329 119.167 105.831 118.869C105.388 118.605 104.842 118.987 104.653 119.359C104.622 119.421 104.512 119.991 104.504 120.246C104.227 119.919 103.962 119.59 103.716 119.26C103.552 119.041 103.399 118.816 103.255 118.586C103.29 118.568 103.322 118.537 103.353 118.497C104.091 118.382 105.033 117.322 104.165 116.953C103.752 116.778 103.305 117.14 103.102 117.436C103.061 117.497 102.994 117.802 102.939 118.042C102.526 117.28 102.211 116.474 101.971 115.647C102.035 115.632 102.09 115.587 102.097 115.509C102.455 115.321 102.738 115.165 102.989 114.803C103.144 114.578 103.424 114.065 102.967 113.941C102.373 113.778 101.999 114.614 101.951 115.025C101.945 115.073 101.945 115.212 101.947 115.339C101.927 115.337 101.906 115.337 101.885 115.34C101.749 114.828 101.64 114.31 101.553 113.79C101.878 113.694 101.934 112.126 101.718 111.903C101.235 111.403 100.894 112.125 100.92 112.507C100.95 112.957 101.172 113.366 101.436 113.729C101.464 113.768 101.456 113.766 101.463 113.712C101.467 113.739 101.477 113.758 101.491 113.773C101.478 114.009 101.451 114.252 101.464 114.462C101.501 115.062 101.577 115.666 101.687 116.258C101.714 116.402 101.744 116.545 101.779 116.687C101.518 116.482 101.166 116.301 101.029 116.244C100.672 116.097 100.121 115.938 99.7667 116.187ZM117.728 137.026C117.712 137.235 117.671 137.427 117.594 137.585C117.652 137.405 117.696 137.218 117.728 137.026Z" fill="#F2F2F2"/>
<g opacity="0.7">
<path opacity="0.7" fill-rule="evenodd" clip-rule="evenodd" d="M110.032 127.426C111.429 127.36 113.156 128.11 113.305 129.507C113.413 130.522 113.38 131.534 113.547 132.547C113.681 133.357 113.965 134.134 114.351 134.872C114.723 135.581 115.493 136.185 115.694 136.943C115.821 137.426 115.75 138.105 115.574 138.578C115.359 139.152 115.473 139.107 115.9 139.589C116.737 140.533 117.49 141.501 118.023 142.629C118.79 144.254 119.293 146.153 119.008 147.931C118.972 148.157 118.929 148.967 118.591 149.024C118.214 149.087 118.39 148.624 118.41 148.474C118.539 147.519 118.653 146.684 118.498 145.714C117.9 141.97 114.981 139.504 113.081 136.327C112.977 136.163 112.756 135.773 112.603 135.516C112.361 135.109 112.117 134.336 111.789 134.035C111.172 133.467 111.74 134.608 111.86 134.826C112.012 135.102 112.179 135.394 112.335 135.636C113.048 136.755 113.844 137.977 114.58 139.131C111.396 139.799 109.153 136.276 108.298 133.959C107.594 132.051 106.751 127.59 110.032 127.426Z" fill="#69A1AC"/>
<path opacity="0.7" fill-rule="evenodd" clip-rule="evenodd" d="M128.752 123.882C126.417 124.053 124.918 125.47 124.22 127.453C123.844 128.521 123.801 129.619 123.592 130.717C123.278 132.369 122.602 133.621 121.28 134.798C120.87 135.162 120.569 135.536 120.354 135.937C119.928 136.337 119.558 136.789 119.285 137.342C118.938 138.048 118.839 138.896 119.241 139.6C119.349 139.789 119.618 140.169 119.897 140.342C118.852 142.39 118.277 144.633 118.342 146.874C118.381 148.226 118.453 149.579 118.537 150.929C118.559 151.292 118.688 151.891 118.88 151.283C119.057 150.726 118.836 149.853 118.815 149.272C118.716 146.441 118.63 143.866 119.897 141.221C120.03 140.944 120.171 140.669 120.317 140.396C120.326 140.391 120.334 140.386 120.342 140.38C120.348 140.384 120.353 140.389 120.358 140.392C120.368 140.377 120.381 140.359 120.396 140.338C120.438 140.298 120.474 140.248 120.509 140.192C120.622 140.048 120.749 139.88 120.749 139.788C120.749 139.787 120.749 139.786 120.749 139.785C121.533 138.608 122.431 137.495 123.349 136.404C123.342 136.411 124.344 135.156 124.189 135.85C124.114 136.185 123.377 136.822 123.08 137.176C122.421 137.965 121.648 138.964 121.005 139.929C120.919 139.975 120.797 140.2 120.708 140.367C120.66 140.452 120.614 140.537 120.569 140.611C122.846 141.303 124.617 139.909 125.825 138.288C125.826 138.286 125.828 138.284 125.829 138.282C126.197 137.834 126.573 137.389 127.043 137.035C127.828 136.444 128.668 136.339 129.594 136.049C132.117 135.255 133.189 132.247 133.53 130.014C133.914 127.496 132.034 123.634 128.752 123.882Z" fill="#89C5CC"/>
<path opacity="0.7" fill-rule="evenodd" clip-rule="evenodd" d="M124.14 116.83C121.743 119.125 120.586 122.307 119.669 125.299C118.645 128.641 117.969 132.034 117.943 135.509C117.926 137.792 117.859 140.089 118.004 142.369C118.055 143.179 118.143 143.99 118.282 144.791C118.294 144.857 118.606 146.645 118.904 146.229C119.074 145.992 118.584 144.373 118.547 144.104C118.339 142.585 118.291 141.056 118.301 139.527C118.318 137.009 118.237 134.504 118.514 131.995C118.556 131.621 118.588 131.227 118.685 130.861C118.788 130.471 118.657 130.641 118.991 130.487C119.316 130.337 119.718 130.358 120.055 130.17C121.392 129.424 122.076 127.508 122.609 126.25C123.218 124.812 123.588 123.279 123.884 121.766C124.101 120.654 124.256 119.549 124.344 118.422C124.371 118.067 124.373 117.696 124.449 117.347C124.469 117.253 124.572 117.087 124.568 117.003C124.56 116.827 124.444 116.723 124.435 116.575C124.335 116.658 124.236 116.743 124.14 116.83Z" fill="#89C5CC"/>
<path opacity="0.7" fill-rule="evenodd" clip-rule="evenodd" d="M111.074 147.402C111.074 151.197 114.417 154.273 118.541 154.273C122.666 154.273 126.009 151.197 126.009 147.402" fill="#89C5CC"/>
<path opacity="0.7" fill-rule="evenodd" clip-rule="evenodd" d="M119.141 147.424H118.746C118.774 146.969 118.81 146.514 118.893 146.063C119.209 144.341 120.199 141.81 122.37 141.531C122.45 141.52 122.744 141.519 123.101 141.538C123.27 141.451 123.46 141.398 123.659 141.386C125.508 141.261 127.572 142.633 128.463 144.061C129.182 145.212 129.061 146.723 128.617 147.946C128.32 148.765 127.671 149.932 126.589 149.944C125.235 149.958 125.17 148.418 125.144 147.519C125.109 146.322 124.945 145.28 123.92 144.465C123.681 144.275 123.42 144.107 123.179 143.92C122.802 143.627 122.384 143.327 122.336 142.842C122.268 142.172 122.679 142.052 123.306 142.176C123.413 142.197 124.489 142.642 124.33 142.291C124.281 142.183 124.103 142.098 123.879 142.034C123.299 141.976 122.606 141.909 122.407 141.949C120.26 142.383 119.423 145.12 119.201 146.859C119.177 147.047 119.158 147.236 119.141 147.424Z" fill="#69A1AC"/>
</g>
<line x1="17.9287" y1="153.711" x2="201.615" y2="153.711" stroke="#CBD2D9"/>
<circle cx="192.665" cy="116.949" r="2.89162" fill="#724BB7"/>
<ellipse cx="94.3186" cy="158.852" rx="2.75392" ry="2.89162" fill="#3F9142"/>
<circle cx="15.3127" cy="73.162" r="2.89162" fill="#FFCC28"/>
<ellipse cx="89.7906" cy="23.1007" rx="2.89162" ry="3.02931" fill="#D64545"/>
<path fill-rule="evenodd" clip-rule="evenodd" d="M34.5478 52.9983L41.8144 55.9407L36.8361 66.5221L29.5708 63.5806L34.5478 52.9983Z" fill="#DFDFDF"/>
<path fill-rule="evenodd" clip-rule="evenodd" d="M35.0218 54.8711L40.0179 56.8628L39.3449 58.2711L34.3487 56.2795L35.0218 54.8711Z" fill="#FF8364"/>
<path d="M33.6732 57.688L38.7764 59.7576" stroke="#6BD5E1" stroke-width="3.11" stroke-linecap="round" stroke-linejoin="round"/>
<path d="M32.9389 59.3686L37.8283 61.2856" stroke="#6BD5E1" stroke-width="3.11" stroke-linecap="round" stroke-linejoin="round"/>
<path d="M32.1578 60.7017L37.261 62.7713" stroke="#6BD5E1" stroke-width="3.11" stroke-linecap="round" stroke-linejoin="round"/>
<path d="M35.5063 64.0392L36.5269 64.4531" stroke="#6BD5E1" stroke-width="3.11" stroke-linecap="round" stroke-linejoin="round"/>
<path fill-rule="evenodd" clip-rule="evenodd" d="M34.525 53.0253L41.8144 55.9407L36.693 66.6917L29.4049 63.7772L34.525 53.0253Z" fill="white"/>
<path fill-rule="evenodd" clip-rule="evenodd" d="M34.9312 54.9787L39.8519 57.0598L39.2693 58.3609L34.3485 56.2798L34.9312 54.9787Z" fill="#E6F6FF"/>
<path d="M33.5072 57.8839L38.6103 59.9535L33.5072 57.8839Z" fill="#E6F6FF"/>
<path d="M33.5072 57.8839L38.6103 59.9535" stroke="#E6F6FF" stroke-width="3.11" stroke-linecap="round" stroke-linejoin="round"/>
<path d="M32.9389 59.3686L37.8283 61.2856L32.9389 59.3686Z" fill="#E6F6FF"/>
<path d="M32.9389 59.3686L37.8283 61.2856" stroke="#E6F6FF" stroke-width="3.11" stroke-linecap="round" stroke-linejoin="round"/>
<path d="M31.9918 60.8982L37.0949 62.9677L31.9918 60.8982Z" fill="#E6F6FF"/>
<path d="M31.9918 60.8982L37.0949 62.9677" stroke="#E6F6FF" stroke-width="3.11" stroke-linecap="round" stroke-linejoin="round"/>
<path d="M35.5063 64.0392L36.5269 64.4531L35.5063 64.0392Z" fill="#E6F6FF"/>
<path d="M35.5063 64.0392L36.5269 64.4531" stroke="#E6F6FF" stroke-width="3.11" stroke-linecap="round" stroke-linejoin="round"/>
<defs>
<filter id="filter0_d_402_1254" x="88.2983" y="58.6078" width="4.33286" height="4.33286" filterUnits="userSpaceOnUse" color-interpolation-filters="sRGB">
<feFlood flood-opacity="0" result="BackgroundImageFix"/>
<feColorMatrix in="SourceAlpha" type="matrix" values="0 0 0 0 0 0 0 0 0 0 0 0 0 0 0 0 0 0 127 0" result="hardAlpha"/>
<feOffset dy="1"/>
<feGaussianBlur stdDeviation="0.5"/>
<feColorMatrix type="matrix" values="0 0 0 0 0 0 0 0 0 0 0 0 0 0 0 0 0 0 0.08 0"/>
<feBlend mode="normal" in2="BackgroundImageFix" result="effect1_dropShadow_402_1254"/>
<feBlend mode="normal" in="SourceGraphic" in2="effect1_dropShadow_402_1254" result="shape"/>
</filter>
<filter id="filter1_d_402_1254" x="92.2765" y="58.6078" width="4.33286" height="4.33286" filterUnits="userSpaceOnUse" color-interpolation-filters="sRGB">
<feFlood flood-opacity="0" result="BackgroundImageFix"/>
<feColorMatrix in="SourceAlpha" type="matrix" values="0 0 0 0 0 0 0 0 0 0 0 0 0 0 0 0 0 0 127 0" result="hardAlpha"/>
<feOffset dy="1"/>
<feGaussianBlur stdDeviation="0.5"/>
<feColorMatrix type="matrix" values="0 0 0 0 0 0 0 0 0 0 0 0 0 0 0 0 0 0 0.08 0"/>
<feBlend mode="normal" in2="BackgroundImageFix" result="effect1_dropShadow_402_1254"/>
<feBlend mode="normal" in="SourceGraphic" in2="effect1_dropShadow_402_1254" result="shape"/>
</filter>
<filter id="filter2_d_402_1254" x="96.2535" y="58.6078" width="4.33286" height="4.33286" filterUnits="userSpaceOnUse" color-interpolation-filters="sRGB">
<feFlood flood-opacity="0" result="BackgroundImageFix"/>
<feColorMatrix in="SourceAlpha" type="matrix" values="0 0 0 0 0 0 0 0 0 0 0 0 0 0 0 0 0 0 127 0" result="hardAlpha"/>
<feOffset dy="1"/>
<feGaussianBlur stdDeviation="0.5"/>
<feColorMatrix type="matrix" values="0 0 0 0 0 0 0 0 0 0 0 0 0 0 0 0 0 0 0.08 0"/>
<feBlend mode="normal" in2="BackgroundImageFix" result="effect1_dropShadow_402_1254"/>
<feBlend mode="normal" in="SourceGraphic" in2="effect1_dropShadow_402_1254" result="shape"/>
</filter>
</defs>
</svg>
