<svg width="244" height="193" viewBox="0 0 244 193" fill="none" xmlns="http://www.w3.org/2000/svg">
<path d="M186.838 19.0369C154.403 -0.391938 108.627 43.212 59.5491 53.4416C10.5309 63.6588 7.57523 196.279 66.6023 168.23C140.288 133.216 233.421 156.269 226.321 99.2748C222.849 71.4034 239.459 50.5576 186.838 19.0369Z" fill="#F4F0F9"/>
<path fill-rule="evenodd" clip-rule="evenodd" d="M204.777 102.93C206.182 101.416 207.133 99.5603 206.974 97.4809C206.516 91.4895 197.435 92.8075 195.668 95.8315C193.902 98.8554 194.112 106.526 196.395 107.066C197.305 107.282 199.245 106.754 201.219 105.661L199.98 113.712H207.296L204.777 102.93Z" fill="#B28B67"/>
<path fill-rule="evenodd" clip-rule="evenodd" d="M210.163 95.4862C210.4 95.2711 210.529 94.9641 210.64 94.6727C210.756 94.3699 210.869 94.064 210.945 93.7488C211.099 93.1191 211.1 92.3949 210.611 91.906C210.219 91.5139 209.63 91.338 209.087 91.2998C208.725 91.2743 208.354 91.3208 208.007 91.4256C207.662 91.5295 207.366 91.7366 207.032 91.8651C207.019 91.1865 206.893 90.4765 206.518 89.8971C206.157 89.3396 205.582 89.0267 204.927 88.944C204.255 88.859 203.591 89.0035 202.989 89.3024C202.839 89.3772 202.689 89.4557 202.546 89.5444C202.427 89.6187 202.302 89.7083 202.162 89.7385C202.006 89.7722 201.928 89.6892 201.826 89.5844C201.707 89.4615 201.573 89.3532 201.431 89.2573C200.802 88.833 199.978 88.6585 199.249 88.9129C198.914 89.03 198.588 89.229 198.36 89.5032C198.157 89.7476 198.013 90.1354 197.732 90.3057C197.614 90.378 197.53 90.2822 197.422 90.2114C197.259 90.105 197.104 89.9877 196.94 89.8842C196.709 89.7388 196.458 89.6301 196.191 89.5732C195.798 89.4899 195.256 89.5094 195.144 89.9811C195.102 90.1583 195.135 90.3478 195.148 90.5263C195.167 90.7714 195.186 91.0164 195.209 91.2612C195.227 91.447 195.249 91.6265 195.287 91.809C195.308 91.9063 195.372 92.0877 195.326 92.1851C195.269 92.3069 195.007 92.2376 194.896 92.2419C194.674 92.2502 194.452 92.2858 194.248 92.3726C194.09 92.4398 193.923 92.5387 193.856 92.7055C193.815 92.8079 193.826 92.9132 193.845 93.0185C193.869 93.145 193.842 93.2121 193.825 93.3397C193.528 93.2054 192.499 92.9071 192.369 93.3958C192.326 93.5585 192.424 93.7424 192.499 93.8796C192.631 94.1203 192.803 94.3403 192.979 94.5501C193.346 94.9878 193.784 95.3653 194.256 95.6881C193.704 95.9137 193.559 96.5792 194.038 96.9757C194.249 97.1508 194.533 97.1898 194.799 97.1786C194.897 97.1745 195.038 97.1401 195.114 97.1557C195.156 97.164 195.2 97.1962 195.257 97.1998C195.633 97.2234 196.058 97.1402 196.425 97.0636C197.08 96.927 197.7 96.642 198.207 96.2079C198.337 96.0966 198.444 96.0325 198.619 96.0341C198.772 96.0355 198.922 96.0741 199.076 96.0777C199.481 96.0872 199.846 95.9053 200.222 95.7843C200.245 96.2509 200.39 96.7649 200.598 97.1847C200.767 97.5271 201.121 97.5768 201.469 97.6068C202.581 97.703 203.697 97.5957 204.811 97.5971C203.733 97.8209 202.619 97.9131 201.55 98.1765C201.067 98.2955 201.436 98.5944 201.643 98.8017C201.983 99.1429 202.236 99.5658 202.411 100.011C202.938 99.3799 203.87 98.9639 204.696 99.1579C205.609 99.3721 206.251 100.505 205.668 101.32C205.329 101.793 204.717 101.976 204.208 102.179C204.605 102.558 204.701 103.118 204.94 103.59C205.058 103.822 205.224 104.085 205.487 104.166C205.585 104.196 205.699 104.199 205.776 104.272C205.871 104.362 205.894 104.463 206.016 104.541C206.502 104.851 207.26 104.827 207.691 104.423C208.08 104.057 207.979 103.477 207.654 103.106C208.171 102.908 209.114 102.653 208.908 101.913C210.03 101.844 212.753 100.174 211.248 98.9534C212.074 98.5247 212.833 97.4768 212.302 96.5531C211.893 95.8418 210.943 95.5239 210.163 95.4862Z" fill="#79091F"/>
<path fill-rule="evenodd" clip-rule="evenodd" d="M220.519 148.707H196.969L193.883 183.423H228.939L220.519 148.707Z" fill="#C5CFD6"/>
<path fill-rule="evenodd" clip-rule="evenodd" d="M220.519 148.707H213.276L208.941 183.423H228.939L220.519 148.707Z" fill="black" fill-opacity="0.1"/>
<path fill-rule="evenodd" clip-rule="evenodd" d="M170.119 142.76C167.609 141.375 163.396 143.154 163.399 145.135C163.407 151.06 169.295 178.986 169.603 180.751C169.91 182.516 173.203 182.983 173.395 180.757C173.7 177.215 174.267 164.955 173.7 159.28C173.466 156.937 173.214 154.706 172.965 152.716C176.055 157.84 180.833 165.176 187.3 174.725L190.811 173.252C188.054 164.911 185.794 159.021 184.029 155.585C181.008 149.701 178.176 144.662 176.984 142.887C175.108 140.096 171.844 141.07 170.119 142.76Z" fill="#B28B67"/>
<path fill-rule="evenodd" clip-rule="evenodd" d="M190.56 168.62L178.511 142.405C175.624 138.14 167.531 143.272 168.515 145.746C170.75 151.361 182.116 169.541 182.782 171.214L190.56 168.62Z" fill="#1A1C23"/>
<path fill-rule="evenodd" clip-rule="evenodd" d="M191.149 171.631C191.914 172.219 192.414 172.697 192.649 173.065C192.934 173.513 193.272 174.209 193.661 175.151C193.113 175.439 188.189 178.031 178.887 182.925C177.737 181.923 177.545 181.156 178.311 180.625C179.077 180.094 179.709 179.646 180.207 179.28L185.225 172.763C185.321 172.638 185.512 172.613 185.651 172.707C185.653 172.709 185.656 172.71 185.658 172.712L186.746 173.495C187.727 173.431 188.457 173.273 188.936 173.021C189.325 172.817 189.768 172.385 190.263 171.726L190.263 171.726C190.453 171.474 190.834 171.419 191.113 171.605C191.125 171.614 191.137 171.622 191.149 171.631Z" fill="#D64545"/>
<path fill-rule="evenodd" clip-rule="evenodd" d="M174.166 179.335C174.508 180.171 174.678 180.797 174.678 181.212C174.678 181.717 174.586 182.454 174.403 183.422C173.766 183.422 168.034 183.422 157.21 183.422C156.763 182.066 157.021 181.333 157.984 181.225C158.946 181.117 159.746 181.019 160.383 180.932L168.374 177.66C168.528 177.597 168.708 177.661 168.777 177.802C168.778 177.804 168.779 177.807 168.78 177.809L169.294 178.954C170.185 179.335 170.909 179.526 171.466 179.526C171.919 179.526 172.544 179.358 173.341 179.023L173.341 179.023C173.648 178.894 174.009 179.017 174.15 179.298C174.156 179.31 174.161 179.323 174.166 179.335Z" fill="#D64545"/>
<path fill-rule="evenodd" clip-rule="evenodd" d="M162.554 147.148C162.554 154.586 166.4 171.936 166.403 173.573L174.678 173.579C173.466 158.098 173.037 150.275 173.389 150.108C173.918 149.858 195.048 152.045 201.386 152.045C210.524 152.045 214.305 146.753 214.612 136.948H196.508C192.822 137.311 173.596 140.872 166.456 142.096C163.399 142.621 162.554 145.099 162.554 147.148Z" fill="#1A1C23"/>
<path fill-rule="evenodd" clip-rule="evenodd" d="M193.69 119.507L183.109 114.185C181.35 112.266 179.616 110.776 177.908 109.714C177.387 109.514 176.474 109.393 177.327 110.784C178.181 112.175 179.01 113.673 178.576 114.102C178.141 114.531 177.057 113.932 176.538 114.644C176.192 115.119 178.044 115.869 182.095 116.894L189.783 123.359L193.69 119.507ZM177.119 123.998L172.471 121.653C171.819 119.374 171.039 118.227 170.132 118.213C169.435 117.915 170.649 120.795 169.328 120.545C168.007 120.295 164.783 118.093 164.228 118.541C163.406 119.202 164.139 121.233 165.002 122.243C166.616 124.131 167.952 124.777 171.254 125.623C172.98 126.065 174.847 126.951 176.854 128.281L177.119 123.998Z" fill="#997659"/>
<path fill-rule="evenodd" clip-rule="evenodd" d="M198.842 118.322C195.136 118.286 190.194 117.567 184.92 114.493L182.85 118.734C186.487 122.049 191.601 124.773 196.073 124.658C199.598 124.567 201.399 120.652 198.842 118.322Z" fill="#CF173C"/>
<path fill-rule="evenodd" clip-rule="evenodd" d="M193.852 125.123C189.918 126.024 183.32 124.961 174.058 121.935C171.761 126.299 170.699 129.411 170.873 131.27C178.817 135.081 185.627 136.78 191.237 136.893C191.059 139.95 191.464 142.859 192.825 145.517C195.623 150.981 212.008 145.921 217.517 146.917C220.967 136.627 214.297 132.445 214.291 125.861C214.285 118.65 207.981 107.552 207.054 107.552H198.596C198.129 113.059 195.78 119.127 193.852 125.123Z" fill="#CF173C"/>
<rect x="101.553" y="67.1104" width="72.195" height="59.1012" rx="3" fill="#CBD2D9"/>
<rect x="103.131" y="75.4912" width="69.0389" height="48.5159" rx="3" fill="white"/>
<g filter="url(#filter0_d_402_1173)">
<circle cx="107.675" cy="71.146" r="1.38834" fill="#F66D6D"/>
</g>
<g filter="url(#filter1_d_402_1173)">
<circle cx="112.41" cy="71.146" r="1.38834" fill="#F6CD6F"/>
</g>
<g filter="url(#filter2_d_402_1173)">
<circle cx="117.144" cy="71.146" r="1.38834" fill="#57C55B"/>
</g>
<rect x="107.865" y="79.4611" width="56.8092" height="6.17475" rx="3.08738" fill="#CBD2D9"/>
<rect x="107.865" y="95.3389" width="56.8092" height="2.64632" rx="1.32316" fill="#CDEBFF"/>
<rect x="107.865" y="105.923" width="56.8092" height="2.64632" rx="1.32316" fill="#CDEBFF"/>
<rect x="107.865" y="99.7489" width="38.2673" height="2.64632" rx="1.32316" fill="#CDEBFF"/>
<rect x="107.865" y="110.333" width="38.2673" height="2.64632" rx="1.32316" fill="#CDEBFF"/>
<path fill-rule="evenodd" clip-rule="evenodd" d="M59.924 81.9027C58.6303 80.5055 57.7548 78.7933 57.9011 76.8746C58.3226 71.3465 66.6862 72.5626 68.3131 75.3527C69.94 78.1429 69.7466 85.2203 67.644 85.7189C66.8055 85.9178 65.0192 85.4307 63.2012 84.4224L64.3424 91.8505H57.6044L59.924 81.9027Z" fill="#B28B67"/>
<path fill-rule="evenodd" clip-rule="evenodd" d="M63.5387 77.4849C63.7967 80.7907 64.4789 82.4436 65.5855 82.4436C67.2456 82.4436 68.654 81.4739 69.3823 81.4739C69.9133 81.4739 69.7947 82.0853 69.4428 82.5386C69.1524 82.9125 67.7384 83.273 67.7384 83.8528C67.7384 84.4326 68.8556 83.984 68.8556 84.3279C68.8556 84.8967 69.0519 85.9661 67.979 85.9661C66.8932 85.9661 63.78 85.602 63.2465 84.1192C62.9022 83.1623 62.6796 81.1793 62.5786 78.1703C62.5128 78.1631 62.4457 78.1594 62.3778 78.1594C61.4474 78.1594 60.6933 78.8534 60.6933 79.7093C60.6933 80.1439 60.8876 80.5367 61.2007 80.8181C60.811 81.3243 60.3741 81.8531 59.8736 82.3987C57.9932 81.3607 56.5978 78.3219 58.4362 75.4027C58.9443 73.9727 60.0947 73.2088 61.4534 72.8541C62.5539 72.4306 63.6964 72.3828 64.6608 72.6367C66.5514 72.7859 68.2395 73.3164 68.718 73.6314C68.718 75.2782 68.3712 75.7668 65.409 75.7237C64.6811 76.0774 64.1216 76.6865 63.5387 77.4849Z" fill="#79091F"/>
<path fill-rule="evenodd" clip-rule="evenodd" d="M81.6802 87.5404L92.3216 84.6011C94.3068 83.1792 96.1792 82.1396 97.939 81.4822C98.4508 81.3936 99.2981 81.4451 98.2393 82.5502C97.1805 83.6554 96.1208 84.8616 96.4231 85.325C96.7254 85.7884 97.8269 85.4391 98.1457 86.1731C98.3582 86.6625 96.5333 87.013 92.671 87.2246L84.3971 91.7049L81.6802 87.5404ZM80.7398 104.803L89.6952 110.854C92.1241 111.457 94.1534 112.207 95.783 113.105C96.1679 113.427 96.6332 114.081 95.0367 113.968C93.4403 113.855 91.7555 113.802 91.5352 114.303C91.3149 114.804 92.281 115.404 91.8357 116.08C91.5389 116.53 90.1364 115.4 87.6283 112.689L78.7602 109.306L80.7398 104.803Z" fill="#B28B67"/>
<path fill-rule="evenodd" clip-rule="evenodd" d="M66.8297 88.5083C71.7065 96.8751 78.7586 103.289 88.9821 109.956L85.1111 113.972C73.696 110.069 67.6715 107.714 64.7129 99.8092C63.9704 97.8252 63.4515 91.5007 63.0063 88.173L66.8297 88.5083Z" fill="#CF173C"/>
<path fill-rule="evenodd" clip-rule="evenodd" d="M53.1968 116.384H74.8144C69.9177 102.643 67.4162 93.2122 67.3101 88.0912C67.3047 87.8302 66.7806 87.3701 66.5488 87.4304C64.8533 87.871 63.0391 87.7062 61.106 86.9362C55.9811 94.52 54.2088 103.857 53.1968 116.384Z" fill="#F2F2F2"/>
<path fill-rule="evenodd" clip-rule="evenodd" d="M62.9504 86.9486C69.147 86.9952 79.2005 88.0364 90.795 84.6115L91.9397 89.8743C83.1767 95.06 74.3034 99.0771 66.5282 98.5066C69.9045 111.832 69.7488 122.741 62.2948 122.741C58.7352 122.741 54.893 122.741 50.7683 122.741C48.9377 111.421 53.749 95.7253 58.2095 87.8086C58.3798 87.5062 58.7425 86.9363 59.5967 86.9363C60.341 86.9363 61.4574 86.9363 62.946 86.9363C62.9474 86.9404 62.9489 86.9445 62.9504 86.9486Z" fill="#CF173C"/>
<path fill-rule="evenodd" clip-rule="evenodd" d="M54.0367 121.807L67.5356 154.672L76.9972 178.896H82.3923L69.3863 121.807L54.0367 121.807Z" fill="#1A1C23"/>
<path fill-rule="evenodd" clip-rule="evenodd" d="M50.7013 121.807C50.5545 133.084 50.6606 148.266 50.3187 148.969C50.0908 149.438 43.0015 154.777 29.0509 164.987L31.8317 169.338C48.3943 159.51 57.099 153.942 57.9458 152.633C59.2159 150.669 65.5971 132.596 68.9172 121.807H50.7013Z" fill="#1A1C23"/>
<path fill-rule="evenodd" clip-rule="evenodd" d="M24.1596 167.878L28.8109 164.628L32.6165 168.797C32.931 171.923 34.0807 175.434 36.0656 179.331L35.2141 179.987L28.3277 172.444L26.3975 169.535L25.9718 169.863L24.1596 167.878Z" fill="#79091F"/>
<path fill-rule="evenodd" clip-rule="evenodd" d="M76.4979 183.546L76.7786 178.121H82.6743C85.4699 179.929 89.1196 181.393 93.6235 182.512V183.546H82.9551L79.3054 183.029V183.546H76.4979Z" fill="#79091F"/>
<path fill-rule="evenodd" clip-rule="evenodd" d="M119.323 134.795C118.725 134.521 117.927 134.838 118.26 135.56C118.616 136.333 119.935 136.343 120.679 136.327C120.604 136.324 120.365 135.615 120.282 135.508C120.04 135.192 119.691 134.963 119.323 134.795ZM126.219 148.655C126.37 148.773 126.232 148.666 126.219 148.655V148.655ZM118.747 138.291C118.397 138.537 118.38 138.972 118.666 139.267C119.007 139.617 119.629 139.605 120.093 139.57C120.303 139.555 121.425 139.472 121.159 139.303C121.179 139.311 121.222 139.328 121.268 139.351C121.292 139.434 121.318 139.516 121.345 139.598C121.339 139.602 121.333 139.606 121.326 139.609C121.333 139.606 121.339 139.603 121.346 139.6C121.615 140.42 121.999 141.2 122.502 141.931C122.314 141.863 122.119 141.811 121.921 141.788C121.336 141.72 120.105 142.138 120.76 142.855C121.387 143.543 122.365 142.805 123.077 142.704C123.768 143.591 124.529 144.441 125.328 145.263C125.279 145.277 125.236 145.306 125.211 145.352C124.891 145.203 124.557 144.989 124.261 144.931C123.833 144.847 122.956 144.797 122.633 145.149C122.235 145.582 122.662 145.934 123.131 146.017C123.812 146.137 124.704 145.831 125.359 145.624C125.434 145.637 125.516 145.616 125.565 145.561C125.58 145.557 125.594 145.553 125.608 145.548C126.417 146.366 127.256 147.157 128.09 147.931C128.081 147.93 128.072 147.93 128.063 147.929C127.845 147.798 127.612 147.69 127.359 147.634C126.774 147.502 126.085 147.502 125.61 147.891C125.137 148.279 124.969 148.958 125.459 149.394C126.439 150.266 127.882 148.277 128.376 148.194C129.224 148.972 130.12 149.699 131.031 150.411C130.928 150.382 130.821 150.361 130.712 150.351C129.819 150.272 127.723 151.279 128.819 152.27C129.774 153.134 130.879 151.472 131.649 150.891C132.507 151.554 133.369 152.213 134.208 152.898C133.75 152.786 133.308 152.77 132.818 152.906C132.311 153.047 131.493 153.4 131.813 154.03C132.139 154.671 133.122 154.379 133.634 154.176C133.913 154.065 134.473 153.69 134.965 153.533C136.303 154.695 137.461 155.975 138.339 157.483C138.887 158.424 139.302 159.43 139.595 160.464C139.781 161.124 140.149 162.233 140.076 163.091C140.427 161.372 139.792 159.307 139.108 157.771C138.479 156.358 137.538 155.117 136.436 154C136.713 153.235 139.041 152.131 137.649 151.42C136.91 151.044 136.153 151.668 135.991 152.328C135.88 152.783 136.049 153.353 136.229 153.794C135.882 153.454 135.522 153.124 135.15 152.806C134.637 152.365 134.111 151.938 133.581 151.516C134.455 150.76 135.283 148.599 134.11 148.246C132.379 147.725 133.212 150.673 133.333 151.225C133.368 151.227 133.394 151.218 133.414 151.197C133.404 151.248 133.393 151.302 133.379 151.357C132.364 150.553 131.333 149.765 130.336 148.942C130.426 148.881 130.569 148.648 130.681 148.524C130.934 148.244 131.176 147.951 131.353 147.624C131.633 147.106 131.903 146.28 131.161 145.976C130.355 145.644 129.972 146.578 129.966 147.135C129.962 147.52 130.077 147.886 130.136 148.264C130.154 148.382 130.083 148.913 130.257 148.684C130.249 148.769 130.248 148.83 130.252 148.873C130.073 148.724 129.896 148.574 129.719 148.423C129.727 148.404 129.733 148.383 129.735 148.359C129.744 148.193 129.563 148.129 129.435 148.178C129.202 147.974 128.972 147.768 128.745 147.558C128.265 147.112 127.779 146.654 127.295 146.186C127.4 146.104 127.358 145.989 127.456 145.901C127.554 145.813 127.747 145.764 127.862 145.683C128.152 145.477 128.392 145.178 128.566 144.884C128.853 144.397 129.223 143.377 128.386 143.145C127.522 142.906 127.084 143.888 127.028 144.502C127.017 144.621 127.114 145.693 127.188 146.082C126.293 145.213 125.414 144.311 124.616 143.393C124.858 143.391 125.543 142.935 125.682 142.811C126.02 142.508 126.557 141.837 125.965 141.483C125.438 141.168 124.788 141.624 124.563 142.067C124.526 142.14 124.395 142.818 124.385 143.123C124.055 142.733 123.74 142.342 123.447 141.949C123.252 141.688 123.07 141.42 122.899 141.146C122.94 141.125 122.979 141.087 123.015 141.041C123.894 140.904 125.015 139.642 123.982 139.203C123.491 138.994 122.958 139.425 122.717 139.778C122.668 139.85 122.588 140.213 122.523 140.499C122.031 139.592 121.656 138.632 121.37 137.648C121.447 137.63 121.512 137.577 121.52 137.484C121.947 137.26 122.284 137.074 122.582 136.644C122.767 136.376 123.1 135.765 122.556 135.617C121.849 135.424 121.404 136.418 121.346 136.908C121.34 136.965 121.34 137.13 121.342 137.282C121.318 137.279 121.293 137.279 121.268 137.283C121.106 136.674 120.976 136.056 120.873 135.438C121.259 135.324 121.326 133.457 121.069 133.192C120.494 132.597 120.089 133.456 120.119 133.91C120.156 134.446 120.419 134.933 120.733 135.366C120.767 135.411 120.758 135.409 120.766 135.345C120.771 135.377 120.783 135.4 120.8 135.417C120.783 135.699 120.752 135.988 120.767 136.237C120.81 136.952 120.901 137.67 121.032 138.376C121.064 138.547 121.101 138.717 121.142 138.886C120.831 138.643 120.413 138.426 120.249 138.359C119.824 138.183 119.169 137.994 118.747 138.291ZM140.126 163.094C140.106 163.343 140.057 163.571 139.966 163.759C140.034 163.545 140.087 163.322 140.126 163.094Z" fill="#F2F2F2"/>
<g opacity="0.7">
<path opacity="0.7" fill-rule="evenodd" clip-rule="evenodd" d="M130.965 151.669C132.628 151.589 134.684 152.482 134.861 154.145C134.99 155.353 134.95 156.557 135.149 157.763C135.309 158.727 135.646 159.653 136.106 160.531C136.548 161.375 137.465 162.094 137.704 162.996C137.856 163.571 137.771 164.379 137.561 164.941C137.306 165.625 137.441 165.571 137.949 166.145C138.945 167.269 139.842 168.421 140.476 169.764C141.389 171.697 141.988 173.958 141.649 176.074C141.606 176.343 141.554 177.308 141.152 177.375C140.703 177.45 140.913 176.899 140.937 176.721C141.09 175.584 141.226 174.59 141.041 173.435C140.33 168.979 136.856 166.044 134.594 162.262C134.47 162.067 134.207 161.603 134.025 161.297C133.736 160.813 133.447 159.893 133.057 159.534C132.322 158.858 132.997 160.217 133.141 160.476C133.322 160.804 133.521 161.153 133.706 161.44C134.555 162.772 135.502 164.226 136.379 165.6C132.588 166.394 129.918 162.201 128.901 159.444C128.063 157.173 127.06 151.863 130.965 151.669Z" fill="#69A1AC"/>
<path opacity="0.7" fill-rule="evenodd" clip-rule="evenodd" d="M153.246 147.45C150.467 147.653 148.683 149.34 147.853 151.7C147.405 152.972 147.354 154.278 147.105 155.585C146.731 157.551 145.926 159.041 144.352 160.442C143.865 160.876 143.506 161.321 143.251 161.798C142.744 162.274 142.303 162.812 141.979 163.47C141.565 164.311 141.448 165.32 141.926 166.158C142.054 166.383 142.375 166.836 142.707 167.041C141.463 169.479 140.779 172.149 140.856 174.815C140.903 176.425 140.988 178.035 141.088 179.643C141.115 180.075 141.267 180.787 141.497 180.063C141.707 179.401 141.443 178.362 141.419 177.67C141.3 174.3 141.199 171.236 142.707 168.087C142.865 167.757 143.033 167.43 143.207 167.105C143.217 167.1 143.227 167.093 143.236 167.087C143.243 167.092 143.249 167.097 143.256 167.101C143.267 167.083 143.282 167.061 143.3 167.037C143.35 166.989 143.394 166.929 143.435 166.862C143.569 166.692 143.721 166.491 143.721 166.382C143.721 166.381 143.721 166.379 143.721 166.379C144.654 164.977 145.723 163.652 146.815 162.353C146.807 162.363 148 160.869 147.815 161.695C147.726 162.093 146.849 162.852 146.495 163.273C145.711 164.212 144.791 165.4 144.026 166.55C143.923 166.605 143.778 166.872 143.672 167.071C143.614 167.172 143.56 167.273 143.507 167.362C146.217 168.186 148.325 166.526 149.762 164.596C149.764 164.594 149.766 164.591 149.767 164.589C150.205 164.056 150.653 163.526 151.213 163.105C152.147 162.401 153.147 162.277 154.248 161.931C157.251 160.987 158.528 157.406 158.933 154.749C159.391 151.751 157.153 147.155 153.246 147.45Z" fill="#89C5CC"/>
<path opacity="0.7" fill-rule="evenodd" clip-rule="evenodd" d="M147.756 139.056C144.904 141.787 143.527 145.575 142.436 149.137C141.217 153.114 140.412 157.153 140.381 161.289C140.361 164.006 140.281 166.74 140.453 169.454C140.514 170.418 140.619 171.383 140.785 172.337C140.798 172.415 141.17 174.544 141.525 174.048C141.727 173.766 141.144 171.839 141.1 171.518C140.853 169.711 140.795 167.891 140.807 166.071C140.827 163.074 140.731 160.092 141.061 157.106C141.11 156.661 141.149 156.192 141.264 155.756C141.386 155.293 141.231 155.495 141.629 155.311C142.016 155.133 142.494 155.158 142.895 154.935C144.486 154.047 145.301 151.765 145.934 150.269C146.659 148.557 147.1 146.732 147.452 144.931C147.71 143.607 147.895 142.292 147.999 140.952C148.032 140.529 148.034 140.087 148.124 139.672C148.149 139.56 148.271 139.362 148.266 139.262C148.257 139.052 148.119 138.929 148.108 138.753C147.988 138.851 147.871 138.953 147.756 139.056Z" fill="#89C5CC"/>
<path opacity="0.7" fill-rule="evenodd" clip-rule="evenodd" d="M132.205 175.445C132.205 179.962 136.184 183.623 141.093 183.623C146.002 183.623 149.982 179.962 149.982 175.445" fill="#89C5CC"/>
<path opacity="0.7" fill-rule="evenodd" clip-rule="evenodd" d="M141.807 175.471H141.337C141.37 174.928 141.413 174.387 141.511 173.851C141.888 171.801 143.066 168.789 145.65 168.456C145.745 168.444 146.096 168.442 146.521 168.465C146.722 168.361 146.947 168.299 147.185 168.284C149.385 168.135 151.841 169.768 152.902 171.467C153.758 172.837 153.614 174.636 153.085 176.092C152.732 177.066 151.959 178.456 150.672 178.469C149.061 178.486 148.983 176.654 148.952 175.583C148.91 174.159 148.715 172.919 147.495 171.948C147.211 171.722 146.9 171.523 146.613 171.3C146.164 170.951 145.667 170.594 145.609 170.016C145.529 169.22 146.018 169.076 146.764 169.224C146.891 169.25 148.173 169.779 147.983 169.36C147.925 169.233 147.713 169.131 147.446 169.056C146.755 168.987 145.932 168.906 145.695 168.954C143.138 169.47 142.143 172.728 141.878 174.799C141.85 175.022 141.827 175.246 141.807 175.471Z" fill="#69A1AC"/>
</g>
<line x1="21.3396" y1="183.048" x2="239.971" y2="183.048" stroke="#CBD2D9"/>
<circle cx="229.318" cy="139.198" r="3.44173" fill="#724BB7"/>
<ellipse cx="112.262" cy="189.073" rx="3.27784" ry="3.44173" fill="#3F9142"/>
<circle cx="18.2258" cy="87.0805" r="3.44173" fill="#FFCC28"/>
<ellipse cx="106.873" cy="27.4954" rx="3.44173" ry="3.60562" fill="#D64545"/>
<path fill-rule="evenodd" clip-rule="evenodd" d="M41.1203 63.0809L49.7693 66.5831L43.8439 79.1775L35.1964 75.6764L41.1203 63.0809Z" fill="#DFDFDF"/>
<path fill-rule="evenodd" clip-rule="evenodd" d="M41.6844 65.31L47.6311 67.6806L46.83 69.3568L40.8833 66.9863L41.6844 65.31Z" fill="#FF8364"/>
<path d="M40.0793 68.6629L46.1533 71.1262" stroke="#6BD5E1" stroke-width="3.11" stroke-linecap="round" stroke-linejoin="round"/>
<path d="M39.2053 70.6631L45.025 72.9448" stroke="#6BD5E1" stroke-width="3.11" stroke-linecap="round" stroke-linejoin="round"/>
<path d="M38.2757 72.2498L44.3496 74.7131" stroke="#6BD5E1" stroke-width="3.11" stroke-linecap="round" stroke-linejoin="round"/>
<path d="M42.2611 76.2223L43.4759 76.715" stroke="#6BD5E1" stroke-width="3.11" stroke-linecap="round" stroke-linejoin="round"/>
<path fill-rule="evenodd" clip-rule="evenodd" d="M41.0932 63.113L49.7693 66.5831L43.6736 79.3794L34.999 75.9105L41.0932 63.113Z" fill="white"/>
<path fill-rule="evenodd" clip-rule="evenodd" d="M41.5766 65.4381L47.4335 67.9151L46.74 69.4638L40.8831 66.9867L41.5766 65.4381Z" fill="#E6F6FF"/>
<path d="M39.8817 68.896L45.9557 71.3594L39.8817 68.896Z" fill="#E6F6FF"/>
<path d="M39.8817 68.896L45.9557 71.3594" stroke="#E6F6FF" stroke-width="3.11" stroke-linecap="round" stroke-linejoin="round"/>
<path d="M39.2053 70.6631L45.025 72.9448L39.2053 70.6631Z" fill="#E6F6FF"/>
<path d="M39.2053 70.6631L45.025 72.9448" stroke="#E6F6FF" stroke-width="3.11" stroke-linecap="round" stroke-linejoin="round"/>
<path d="M38.078 72.4837L44.152 74.947L38.078 72.4837Z" fill="#E6F6FF"/>
<path d="M38.078 72.4837L44.152 74.947" stroke="#E6F6FF" stroke-width="3.11" stroke-linecap="round" stroke-linejoin="round"/>
<path d="M42.2611 76.2223L43.4759 76.715L42.2611 76.2223Z" fill="#E6F6FF"/>
<path d="M42.2611 76.2223L43.4759 76.715" stroke="#E6F6FF" stroke-width="3.11" stroke-linecap="round" stroke-linejoin="round"/>
<defs>
<filter id="filter0_d_402_1173" x="105.287" y="69.7577" width="4.77667" height="4.77661" filterUnits="userSpaceOnUse" color-interpolation-filters="sRGB">
<feFlood flood-opacity="0" result="BackgroundImageFix"/>
<feColorMatrix in="SourceAlpha" type="matrix" values="0 0 0 0 0 0 0 0 0 0 0 0 0 0 0 0 0 0 127 0" result="hardAlpha"/>
<feOffset dy="1"/>
<feGaussianBlur stdDeviation="0.5"/>
<feColorMatrix type="matrix" values="0 0 0 0 0 0 0 0 0 0 0 0 0 0 0 0 0 0 0.08 0"/>
<feBlend mode="normal" in2="BackgroundImageFix" result="effect1_dropShadow_402_1173"/>
<feBlend mode="normal" in="SourceGraphic" in2="effect1_dropShadow_402_1173" result="shape"/>
</filter>
<filter id="filter1_d_402_1173" x="110.022" y="69.7577" width="4.77667" height="4.77661" filterUnits="userSpaceOnUse" color-interpolation-filters="sRGB">
<feFlood flood-opacity="0" result="BackgroundImageFix"/>
<feColorMatrix in="SourceAlpha" type="matrix" values="0 0 0 0 0 0 0 0 0 0 0 0 0 0 0 0 0 0 127 0" result="hardAlpha"/>
<feOffset dy="1"/>
<feGaussianBlur stdDeviation="0.5"/>
<feColorMatrix type="matrix" values="0 0 0 0 0 0 0 0 0 0 0 0 0 0 0 0 0 0 0.08 0"/>
<feBlend mode="normal" in2="BackgroundImageFix" result="effect1_dropShadow_402_1173"/>
<feBlend mode="normal" in="SourceGraphic" in2="effect1_dropShadow_402_1173" result="shape"/>
</filter>
<filter id="filter2_d_402_1173" x="114.755" y="69.7577" width="4.77667" height="4.77661" filterUnits="userSpaceOnUse" color-interpolation-filters="sRGB">
<feFlood flood-opacity="0" result="BackgroundImageFix"/>
<feColorMatrix in="SourceAlpha" type="matrix" values="0 0 0 0 0 0 0 0 0 0 0 0 0 0 0 0 0 0 127 0" result="hardAlpha"/>
<feOffset dy="1"/>
<feGaussianBlur stdDeviation="0.5"/>
<feColorMatrix type="matrix" values="0 0 0 0 0 0 0 0 0 0 0 0 0 0 0 0 0 0 0.08 0"/>
<feBlend mode="normal" in2="BackgroundImageFix" result="effect1_dropShadow_402_1173"/>
<feBlend mode="normal" in="SourceGraphic" in2="effect1_dropShadow_402_1173" result="shape"/>
</filter>
</defs>
</svg>
